<svg width="25" height="25" viewBox="0 0 25 25" fill="none" xmlns="http://www.w3.org/2000/svg">
<path d="M22.6987 0.491882H1.35096C0.997099 0.491882 0.65773 0.632453 0.407512 0.882671C0.157295 1.13289 0.0167236 1.47226 0.0167236 1.82612V23.1739C0.0167236 23.5278 0.157295 23.8671 0.407512 24.1174C0.65773 24.3676 0.997099 24.5081 1.35096 24.5081H22.6987C23.0526 24.5081 23.392 24.3676 23.6422 24.1174C23.8924 23.8671 24.033 23.5278 24.033 23.1739V1.82612C24.033 1.47226 23.8924 1.13289 23.6422 0.882671C23.392 0.632453 23.0526 0.491882 22.6987 0.491882ZM19.9689 6.1824L18.68 7.41657C18.6256 7.45809 18.5836 7.51378 18.5586 7.57754C18.5337 7.64131 18.5268 7.71071 18.5386 7.77815V16.8523C18.5268 16.9197 18.5337 16.9891 18.5586 17.0529C18.5836 17.1167 18.6256 17.1723 18.68 17.2139L19.9369 18.4494V18.7216H13.6113V18.4494L14.9148 17.1845C15.0442 17.0564 15.0442 17.0177 15.0442 16.8229V9.4873L11.4204 18.6882H10.9294L6.71192 9.4873V15.6541C6.69527 15.7823 6.70773 15.9126 6.74839 16.0352C6.78905 16.1579 6.85685 16.2698 6.94675 16.3626L8.64256 18.4187V18.6895H3.83397V18.4187L5.52979 16.3626C5.61905 16.2698 5.68533 16.1574 5.72333 16.0344C5.76133 15.9113 5.76998 15.7811 5.7486 15.6541V8.52399C5.75858 8.42639 5.74542 8.3278 5.71018 8.23624C5.67495 8.14467 5.61863 8.0627 5.5458 7.99696L4.03811 6.1824V5.91155H8.71595L12.3317 13.8409L15.5099 5.91155H19.9702V6.1824H19.9689Z" fill="#17171B"/>
</svg>
