<svg width="25" height="25" viewBox="0 0 25 25" fill="none" xmlns="http://www.w3.org/2000/svg">
<path d="M21.4615 0.500031H2.60439C1.18474 0.500031 0.032959 1.65182 0.032959 3.07146V21.9286C0.032959 23.3482 1.18474 24.5 2.60439 24.5H21.4615C22.8812 24.5 24.033 23.3482 24.033 21.9286V3.07146C24.033 1.65182 22.8812 0.500031 21.4615 0.500031ZM14.8883 21.0554C14.4383 21.1357 14.2722 20.8572 14.2722 20.6268C14.2722 20.3375 14.283 18.859 14.283 17.6643C14.283 16.8286 14.0044 16.2982 13.6776 16.0197C15.6597 15.8 17.749 15.5268 17.749 12.1036C17.749 11.1286 17.4008 10.6411 16.833 10.0143C16.924 9.78396 17.2294 8.83574 16.7419 7.6036C15.9972 7.37325 14.2937 8.56253 14.2937 8.56253C13.5865 8.36432 12.8205 8.26253 12.0651 8.26253C11.3097 8.26253 10.5437 8.36432 9.83653 8.56253C9.83653 8.56253 8.13296 7.37325 7.38832 7.6036C6.90082 8.83039 7.20082 9.7786 7.29725 10.0143C6.72939 10.6411 6.46153 11.1286 6.46153 12.1036C6.46153 15.5107 8.45975 15.8 10.4419 16.0197C10.1847 16.25 9.95439 16.6465 9.87403 17.2143C9.3651 17.4447 8.06332 17.8411 7.28653 16.4697C6.79903 15.6232 5.92046 15.5536 5.92046 15.5536C5.0526 15.5429 5.86153 16.1 5.86153 16.1C6.4401 16.3679 6.84724 17.3965 6.84724 17.3965C7.36689 18.9875 9.8526 18.4518 9.8526 18.4518C9.8526 19.1965 9.86332 20.4072 9.86332 20.6268C9.86332 20.8572 9.7026 21.1357 9.24724 21.0554C5.71153 19.8715 3.23653 16.5072 3.23653 12.575C3.23653 7.65717 6.99724 3.92324 11.9151 3.92324C16.833 3.92324 20.8187 7.65717 20.8187 12.575C20.824 16.5072 18.424 19.8768 14.8883 21.0554ZM9.63296 17.7822C9.53117 17.8036 9.43474 17.7607 9.42403 17.6911C9.41332 17.6107 9.48296 17.5411 9.58475 17.5197C9.68653 17.509 9.78296 17.5518 9.79367 17.6215C9.80974 17.6911 9.7401 17.7607 9.63296 17.7822ZM9.12403 17.734C9.12403 17.8036 9.04367 17.8625 8.93653 17.8625C8.81867 17.8732 8.73832 17.8143 8.73832 17.734C8.73832 17.6643 8.81867 17.6054 8.92582 17.6054C9.0276 17.5947 9.12403 17.6536 9.12403 17.734ZM8.3901 17.675C8.36867 17.7447 8.26153 17.7768 8.17046 17.7447C8.06867 17.7232 7.99903 17.6429 8.02046 17.5732C8.04189 17.5036 8.14903 17.4715 8.2401 17.4929C8.34724 17.525 8.41689 17.6054 8.3901 17.675ZM7.73117 17.3857C7.68296 17.4447 7.58117 17.434 7.50082 17.3536C7.42046 17.284 7.39903 17.1822 7.4526 17.134C7.50082 17.075 7.6026 17.0857 7.68296 17.1661C7.7526 17.2357 7.77939 17.3429 7.73117 17.3857ZM7.24367 16.8982C7.19546 16.9304 7.10439 16.8982 7.04546 16.8179C6.98653 16.7375 6.98653 16.6465 7.04546 16.609C7.10439 16.5607 7.19546 16.5982 7.24367 16.6786C7.3026 16.759 7.3026 16.8554 7.24367 16.8982ZM6.89546 16.3786C6.84725 16.4268 6.76689 16.4 6.70796 16.3465C6.64903 16.2768 6.63832 16.1965 6.68653 16.159C6.73474 16.1107 6.8151 16.1375 6.87403 16.1911C6.93296 16.2607 6.94367 16.3411 6.89546 16.3786ZM6.53653 15.9822C6.5151 16.0304 6.44546 16.0411 6.38653 16.0036C6.31689 15.9715 6.28474 15.9125 6.30617 15.8643C6.3276 15.8322 6.38653 15.8161 6.45617 15.8429C6.52582 15.8804 6.55796 15.9393 6.53653 15.9822Z" fill="#363648"/>
</svg>
