<svg width="25" height="25" viewBox="0 0 25 25" fill="none" xmlns="http://www.w3.org/2000/svg">
<path d="M12.4969 8.33157C10.2016 8.33157 8.32844 10.2047 8.32844 12.5C8.32844 14.7953 10.2016 16.6685 12.4969 16.6685C14.7922 16.6685 16.6653 14.7953 16.6653 12.5C16.6653 10.2047 14.7922 8.33157 12.4969 8.33157ZM24.9991 12.5C24.9991 10.7738 25.0147 9.06332 24.9178 7.34027C24.8209 5.33892 24.3643 3.56272 22.9008 2.09923C21.4342 0.632608 19.6611 0.179176 17.6598 0.0822352C15.9336 -0.0147055 14.2231 0.000930143 12.5 0.000930143C10.7738 0.000930143 9.06332 -0.0147055 7.34027 0.0822352C5.33892 0.179176 3.56272 0.635735 2.09923 2.09923C0.632608 3.56584 0.179176 5.33892 0.0822351 7.34027C-0.0147055 9.06644 0.000930143 10.777 0.000930143 12.5C0.000930143 14.2231 -0.0147055 15.9367 0.0822351 17.6598C0.179176 19.6611 0.635735 21.4373 2.09923 22.9008C3.56584 24.3674 5.33892 24.8209 7.34027 24.9178C9.06644 25.0147 10.777 24.9991 12.5 24.9991C14.2262 24.9991 15.9367 25.0147 17.6598 24.9178C19.6611 24.8209 21.4373 24.3643 22.9008 22.9008C24.3674 21.4342 24.8209 19.6611 24.9178 17.6598C25.0179 15.9367 24.9991 14.2262 24.9991 12.5ZM12.4969 18.9137C8.94761 18.9137 6.08317 16.0493 6.08317 12.5C6.08317 8.95074 8.94761 6.0863 12.4969 6.0863C16.0462 6.0863 18.9106 8.95074 18.9106 12.5C18.9106 16.0493 16.0462 18.9137 12.4969 18.9137ZM19.1733 7.32151C18.3446 7.32151 17.6754 6.65231 17.6754 5.82362C17.6754 4.99494 18.3446 4.32573 19.1733 4.32573C20.002 4.32573 20.6712 4.99494 20.6712 5.82362C20.6714 6.0204 20.6328 6.21529 20.5577 6.39713C20.4825 6.57898 20.3721 6.7442 20.233 6.88334C20.0939 7.02248 19.9286 7.13281 19.7468 7.208C19.565 7.28318 19.3701 7.32176 19.1733 7.32151Z" fill="#17171B"/>
</svg>
