<svg width="25" height="25" viewBox="0 0 25 25" fill="none" xmlns="http://www.w3.org/2000/svg">
<path d="M21.4436 0.491882H2.57366C1.15305 0.491882 0.000488281 1.64445 0.000488281 3.06505V21.935C0.000488281 23.3556 1.15305 24.5081 2.57366 24.5081H21.4436C22.8642 24.5081 24.0167 23.3556 24.0167 21.935V3.06505C24.0167 1.64445 22.8642 0.491882 21.4436 0.491882ZM18.8222 9.00479C18.8329 9.15489 18.8329 9.31035 18.8329 9.46045C18.8329 14.1082 15.2948 19.4637 8.82968 19.4637C6.83547 19.4637 4.98601 18.8847 3.43138 17.8876C3.7155 17.9198 3.9889 17.9305 4.27838 17.9305C5.92414 17.9305 7.43588 17.373 8.64205 16.4295C7.09815 16.3973 5.80084 15.3841 5.3559 13.9903C5.89734 14.0707 6.38517 14.0707 6.94269 13.926C5.33446 13.599 4.12828 12.1837 4.12828 10.4736V10.4308C4.59467 10.6934 5.14147 10.8543 5.71507 10.8757C5.23283 10.5549 4.8375 10.1198 4.56437 9.60903C4.29123 9.0983 4.14878 8.5279 4.14973 7.94872C4.14973 7.2947 4.32127 6.6943 4.62683 6.1743C6.35836 8.30789 8.95834 9.70169 11.8746 9.85179C11.376 7.46625 13.1612 5.53101 15.3055 5.53101C16.3187 5.53101 17.23 5.95451 17.8733 6.64069C18.6667 6.49059 19.4279 6.19574 20.1034 5.79369C19.8407 6.60852 19.2885 7.2947 18.5595 7.72893C19.2671 7.65387 19.9533 7.45553 20.5859 7.18213C20.1087 7.88439 19.5083 8.50624 18.8222 9.00479Z" fill="#17171B"/>
</svg>
