<svg width="102" height="628" viewBox="0 0 102 628" fill="none" xmlns="http://www.w3.org/2000/svg">
<path d="M-39.0969 585.269L59.0456 556.723L59.0456 555.636L-39.0969 527.09L-39.0969 484.407L100.097 530.352L100.097 582.006L-39.0969 627.951L-39.0969 585.269Z" fill="#F8F8F8"/>
<path d="M-39.0969 445.653L100.097 445.653L100.097 483.442L-39.0969 483.442L-39.0969 445.653Z" fill="#F8F8F8"/>
<path d="M-39.0969 402.123L59.0456 373.578L59.0456 372.49L-39.0969 343.945L-39.0969 301.262L100.097 347.207L100.097 398.861L-39.0969 444.806L-39.0969 402.123Z" fill="#F8F8F8"/>
<path d="M100.097 300.296L-39.0969 300.296L-39.0969 199.979L-8.64827 199.979L-8.64827 262.507L15.2757 262.507L15.2757 205.144L45.7243 205.144L45.7243 262.507L69.6483 262.507L69.6483 200.251L100.097 200.251L100.097 300.296Z" fill="#F8F8F8"/>
<path d="M-39.0969 129.929L59.0456 101.383L59.0456 100.296L-39.0969 71.7499L-39.0969 29.0674L100.097 75.0123L100.097 126.666L-39.0969 172.611L-39.0969 129.929Z" fill="#F8F8F8"/>
<path d="M-39.097 -9.68732L100.097 -9.68732L100.097 28.1016L-39.0969 28.1016L-39.097 -9.68732Z" fill="#F8F8F8"/>
<path d="M30.5 -150C45.9962 -150 59.0683 -146.987 69.7162 -140.961C80.3189 -134.934 88.3615 -126.801 93.8441 -116.561C99.2814 -106.321 102 -94.9024 102 -82.306C102 -69.6191 99.2587 -58.1556 93.7761 -47.9154C88.2482 -37.7205 80.183 -29.6099 69.5803 -23.5836C58.9323 -17.6026 45.9056 -14.6121 30.5 -14.6121C15.0038 -14.6121 1.95437 -17.6026 -8.64828 -23.5836C-19.2963 -29.6099 -27.3389 -37.7205 -32.7761 -47.9153C-38.2587 -58.1556 -41 -69.6191 -41 -82.306C-41 -94.9024 -38.2587 -106.321 -32.7761 -116.561C-27.3389 -126.801 -19.2963 -134.934 -8.64829 -140.961C1.95437 -146.987 15.0038 -150 30.5 -150ZM30.5 -111.124C22.1629 -111.124 15.1397 -110.013 9.43061 -107.793C3.67616 -105.618 -0.673643 -102.379 -3.61883 -98.0741C-6.60932 -93.8149 -8.10457 -88.5589 -8.10457 -82.306C-8.10456 -76.0532 -6.60932 -70.7745 -3.61882 -66.47C-0.673641 -62.2109 3.67617 -58.9711 9.43061 -56.7509C15.1397 -54.5761 22.1629 -53.4885 30.5 -53.4885C38.8371 -53.4885 45.8829 -54.5761 51.6373 -56.7509C57.3465 -58.9711 61.6963 -62.2109 64.6868 -66.47C67.632 -70.7745 69.1045 -76.0532 69.1045 -82.306C69.1045 -88.5589 67.632 -93.8149 64.6868 -98.0741C61.6963 -102.379 57.3465 -105.618 51.6373 -107.793C45.8829 -110.013 38.8371 -111.124 30.5 -111.124Z" fill="#F8F8F8"/>
</svg>
