<svg width="31" height="16" viewBox="0 0 31 16" fill="none" xmlns="http://www.w3.org/2000/svg">
<path fill-rule="evenodd" clip-rule="evenodd" d="M-3.38777e-07 8.09131C-3.5161e-07 8.37777 0.116628 8.65251 0.324228 8.85507C0.531828 9.05763 0.813396 9.17143 1.10699 9.17143L27.2164 9.17143L22.463 13.8073C22.36 13.9077 22.2784 14.0269 22.2227 14.1582C22.167 14.2894 22.1383 14.43 22.1383 14.572C22.1383 14.714 22.167 14.8547 22.2227 14.9859C22.2784 15.1171 22.36 15.2363 22.463 15.3367C22.5659 15.4372 22.6881 15.5168 22.8225 15.5712C22.957 15.6255 23.1011 15.6535 23.2467 15.6535C23.3923 15.6535 23.5364 15.6255 23.6709 15.5712C23.8053 15.5168 23.9275 15.4372 24.0304 15.3367L30.6724 8.85603C30.7755 8.7557 30.8573 8.63651 30.9131 8.50528C30.9689 8.37406 30.9976 8.23338 30.9976 8.09131C30.9976 7.94924 30.9689 7.80856 30.9131 7.67733C30.8573 7.54611 30.7755 7.42692 30.6724 7.32658L24.0304 0.845873C23.8226 0.643055 23.5407 0.529113 23.2467 0.529113C22.9527 0.529113 22.6708 0.643055 22.463 0.845873C22.2551 1.04869 22.1383 1.32377 22.1383 1.6106C22.1383 1.89742 22.2551 2.1725 22.463 2.37532L27.2164 7.01119L1.10699 7.01119C0.813396 7.01119 0.531828 7.12499 0.324228 7.32755C0.116628 7.53011 -3.25943e-07 7.80484 -3.38777e-07 8.09131Z" fill="white"/>
</svg>
