<svg width="31" height="16" viewBox="0 0 31 16" fill="none" xmlns="http://www.w3.org/2000/svg">
<path fill-rule="evenodd" clip-rule="evenodd" d="M30.9976 8.09131C30.9976 8.37777 30.881 8.65251 30.6734 8.85507C30.4658 9.05763 30.1842 9.17143 29.8906 9.17143L3.78123 9.17143L8.53463 13.8073C8.63756 13.9077 8.7192 14.0269 8.7749 14.1582C8.8306 14.2894 8.85927 14.43 8.85927 14.572C8.85927 14.714 8.8306 14.8547 8.7749 14.9859C8.7192 15.1171 8.63756 15.2363 8.53463 15.3367C8.43171 15.4372 8.30952 15.5168 8.17505 15.5712C8.04057 15.6255 7.89644 15.6535 7.75089 15.6535C7.60533 15.6535 7.4612 15.6255 7.32673 15.5712C7.19225 15.5168 7.07006 15.4372 6.96714 15.3367L0.325219 8.85603C0.222129 8.7557 0.140339 8.63651 0.0845322 8.50528C0.0287258 8.37406 3.45141e-07 8.23338 3.38777e-07 8.09131C3.32412e-07 7.94924 0.0287258 7.80856 0.0845322 7.67733C0.140339 7.54611 0.222129 7.42692 0.325219 7.32658L6.96714 0.845873C7.175 0.643055 7.45692 0.529113 7.75089 0.529113C8.04485 0.529113 8.32677 0.643055 8.53463 0.845873C8.7425 1.04869 8.85927 1.32377 8.85927 1.6106C8.85927 1.89742 8.7425 2.1725 8.53463 2.37532L3.78123 7.01119L29.8906 7.01119C30.1842 7.01119 30.4658 7.12499 30.6734 7.32755C30.881 7.53011 30.9976 7.80484 30.9976 8.09131Z" fill="white"/>
</svg>
