<svg width="246" height="150" viewBox="0 0 246 150" fill="none" xmlns="http://www.w3.org/2000/svg">
<g clip-path="url(#clip0_2_43)">
<circle cx="1.5" cy="1.5" r="1.5" fill="#E1EEFE"/>
<circle cx="10.5" cy="1.5" r="1.5" fill="#E1EEFE"/>
<circle cx="19.5" cy="1.5" r="1.5" fill="#E1EEFE"/>
<circle cx="28.5" cy="1.5" r="1.5" fill="#E1EEFE"/>
<circle cx="37.5" cy="1.5" r="1.5" fill="#E1EEFE"/>
<circle cx="46.5" cy="1.5" r="1.5" fill="#E1EEFE"/>
<circle cx="55.5" cy="1.5" r="1.5" fill="#E1EEFE"/>
<circle cx="64.5" cy="1.5" r="1.5" fill="#E1EEFE"/>
<circle cx="73.5" cy="1.5" r="1.5" fill="#E1EEFE"/>
<circle cx="82.5" cy="1.5" r="1.5" fill="#E1EEFE"/>
<circle cx="91.5" cy="1.5" r="1.5" fill="#E1EEFE"/>
<circle cx="100.5" cy="1.5" r="1.5" fill="#E1EEFE"/>
<circle cx="109.5" cy="1.5" r="1.5" fill="#E1EEFE"/>
<circle cx="118.5" cy="1.5" r="1.5" fill="#E1EEFE"/>
<circle cx="127.5" cy="1.5" r="1.5" fill="#E1EEFE"/>
<circle cx="136.5" cy="1.5" r="1.5" fill="#E1EEFE"/>
<circle cx="145.5" cy="1.5" r="1.5" fill="#E1EEFE"/>
<circle cx="154.5" cy="1.5" r="1.5" fill="#E1EEFE"/>
<circle cx="163.5" cy="1.5" r="1.5" fill="#E1EEFE"/>
<circle cx="172.5" cy="1.5" r="1.5" fill="#E1EEFE"/>
<circle cx="181.5" cy="1.5" r="1.5" fill="#E1EEFE"/>
<circle cx="190.5" cy="1.5" r="1.5" fill="#E1EEFE"/>
<circle cx="199.5" cy="1.5" r="1.5" fill="#E1EEFE"/>
<circle cx="208.5" cy="1.5" r="1.5" fill="#E1EEFE"/>
<circle cx="217.5" cy="1.5" r="1.5" fill="#E1EEFE"/>
<circle cx="226.5" cy="1.5" r="1.5" fill="#E1EEFE"/>
<circle cx="235.5" cy="1.5" r="1.5" fill="#E1EEFE"/>
<circle cx="244.5" cy="1.5" r="1.5" fill="#E1EEFE"/>
<circle cx="1.5" cy="10.5" r="1.5" fill="#E1EEFE"/>
<circle cx="10.5" cy="10.5" r="1.5" fill="#E1EEFE"/>
<circle cx="19.5" cy="10.5" r="1.5" fill="#E1EEFE"/>
<circle cx="28.5" cy="10.5" r="1.5" fill="#E1EEFE"/>
<circle cx="37.5" cy="10.5" r="1.5" fill="#E1EEFE"/>
<circle cx="46.5" cy="10.5" r="1.5" fill="#E1EEFE"/>
<circle cx="55.5" cy="10.5" r="1.5" fill="#E1EEFE"/>
<circle cx="64.5" cy="10.5" r="1.5" fill="#E1EEFE"/>
<circle cx="73.5" cy="10.5" r="1.5" fill="#E1EEFE"/>
<circle cx="82.5" cy="10.5" r="1.5" fill="#E1EEFE"/>
<circle cx="91.5" cy="10.5" r="1.5" fill="#E1EEFE"/>
<circle cx="100.5" cy="10.5" r="1.5" fill="#E1EEFE"/>
<circle cx="109.5" cy="10.5" r="1.5" fill="#E1EEFE"/>
<circle cx="118.5" cy="10.5" r="1.5" fill="#E1EEFE"/>
<circle cx="127.5" cy="10.5" r="1.5" fill="#E1EEFE"/>
<circle cx="136.5" cy="10.5" r="1.5" fill="#E1EEFE"/>
<circle cx="145.5" cy="10.5" r="1.5" fill="#E1EEFE"/>
<circle cx="154.5" cy="10.5" r="1.5" fill="#E1EEFE"/>
<circle cx="163.5" cy="10.5" r="1.5" fill="#E1EEFE"/>
<circle cx="172.5" cy="10.5" r="1.5" fill="#E1EEFE"/>
<circle cx="181.5" cy="10.5" r="1.5" fill="#E1EEFE"/>
<circle cx="190.5" cy="10.5" r="1.5" fill="#E1EEFE"/>
<circle cx="199.5" cy="10.5" r="1.5" fill="#E1EEFE"/>
<circle cx="208.5" cy="10.5" r="1.5" fill="#E1EEFE"/>
<circle cx="217.5" cy="10.5" r="1.5" fill="#E1EEFE"/>
<circle cx="226.5" cy="10.5" r="1.5" fill="#E1EEFE"/>
<circle cx="235.5" cy="10.5" r="1.5" fill="#E1EEFE"/>
<circle cx="244.5" cy="10.5" r="1.5" fill="#E1EEFE"/>
<circle cx="1.5" cy="19.5" r="1.5" fill="#E1EEFE"/>
<circle cx="10.5" cy="19.5" r="1.5" fill="#E1EEFE"/>
<circle cx="19.5" cy="19.5" r="1.5" fill="#E1EEFE"/>
<circle cx="28.5" cy="19.5" r="1.5" fill="#E1EEFE"/>
<circle cx="37.5" cy="19.5" r="1.5" fill="#E1EEFE"/>
<circle cx="46.5" cy="19.5" r="1.5" fill="#E1EEFE"/>
<circle cx="55.5" cy="19.5" r="1.5" fill="#E1EEFE"/>
<circle cx="64.5" cy="19.5" r="1.5" fill="#E1EEFE"/>
<circle cx="73.5" cy="19.5" r="1.5" fill="#E1EEFE"/>
<circle cx="82.5" cy="19.5" r="1.5" fill="#E1EEFE"/>
<circle cx="91.5" cy="19.5" r="1.5" fill="#E1EEFE"/>
<circle cx="100.5" cy="19.5" r="1.5" fill="#E1EEFE"/>
<circle cx="109.5" cy="19.5" r="1.5" fill="#E1EEFE"/>
<circle cx="118.5" cy="19.5" r="1.5" fill="#E1EEFE"/>
<circle cx="127.5" cy="19.5" r="1.5" fill="#E1EEFE"/>
<circle cx="136.5" cy="19.5" r="1.5" fill="#E1EEFE"/>
<circle cx="145.5" cy="19.5" r="1.5" fill="#E1EEFE"/>
<circle cx="154.5" cy="19.5" r="1.5" fill="#E1EEFE"/>
<circle cx="163.5" cy="19.5" r="1.5" fill="#E1EEFE"/>
<circle cx="172.5" cy="19.5" r="1.5" fill="#E1EEFE"/>
<circle cx="181.5" cy="19.5" r="1.5" fill="#E1EEFE"/>
<circle cx="190.5" cy="19.5" r="1.5" fill="#E1EEFE"/>
<circle cx="199.5" cy="19.5" r="1.5" fill="#E1EEFE"/>
<circle cx="208.5" cy="19.5" r="1.5" fill="#E1EEFE"/>
<circle cx="217.5" cy="19.5" r="1.5" fill="#E1EEFE"/>
<circle cx="226.5" cy="19.5" r="1.5" fill="#E1EEFE"/>
<circle cx="235.5" cy="19.5" r="1.5" fill="#E1EEFE"/>
<circle cx="244.5" cy="19.5" r="1.5" fill="#E1EEFE"/>
<circle cx="1.5" cy="28.5" r="1.5" fill="#E1EEFE"/>
<circle cx="10.5" cy="28.5" r="1.5" fill="#E1EEFE"/>
<circle cx="19.5" cy="28.5" r="1.5" fill="#E1EEFE"/>
<circle cx="28.5" cy="28.5" r="1.5" fill="#E1EEFE"/>
<circle cx="37.5" cy="28.5" r="1.5" fill="#E1EEFE"/>
<circle cx="46.5" cy="28.5" r="1.5" fill="#E1EEFE"/>
<circle cx="55.5" cy="28.5" r="1.5" fill="#E1EEFE"/>
<circle cx="64.5" cy="28.5" r="1.5" fill="#E1EEFE"/>
<circle cx="73.5" cy="28.5" r="1.5" fill="#E1EEFE"/>
<circle cx="82.5" cy="28.5" r="1.5" fill="#E1EEFE"/>
<circle cx="91.5" cy="28.5" r="1.5" fill="#E1EEFE"/>
<circle cx="100.5" cy="28.5" r="1.5" fill="#E1EEFE"/>
<circle cx="109.5" cy="28.5" r="1.5" fill="#E1EEFE"/>
<circle cx="118.5" cy="28.5" r="1.5" fill="#E1EEFE"/>
<circle cx="127.5" cy="28.5" r="1.5" fill="#E1EEFE"/>
<circle cx="136.5" cy="28.5" r="1.5" fill="#E1EEFE"/>
<circle cx="145.5" cy="28.5" r="1.5" fill="#E1EEFE"/>
<circle cx="154.5" cy="28.5" r="1.5" fill="#E1EEFE"/>
<circle cx="163.5" cy="28.5" r="1.5" fill="#E1EEFE"/>
<circle cx="172.5" cy="28.5" r="1.5" fill="#E1EEFE"/>
<circle cx="181.5" cy="28.5" r="1.5" fill="#E1EEFE"/>
<circle cx="190.5" cy="28.5" r="1.5" fill="#E1EEFE"/>
<circle cx="199.5" cy="28.5" r="1.5" fill="#E1EEFE"/>
<circle cx="208.5" cy="28.5" r="1.5" fill="#E1EEFE"/>
<circle cx="217.5" cy="28.5" r="1.5" fill="#E1EEFE"/>
<circle cx="226.5" cy="28.5" r="1.5" fill="#E1EEFE"/>
<circle cx="235.5" cy="28.5" r="1.5" fill="#E1EEFE"/>
<circle cx="244.5" cy="28.5" r="1.5" fill="#E1EEFE"/>
<circle cx="1.5" cy="37.5" r="1.5" fill="#E1EEFE"/>
<circle cx="10.5" cy="37.5" r="1.5" fill="#E1EEFE"/>
<circle cx="19.5" cy="37.5" r="1.5" fill="#E1EEFE"/>
<circle cx="28.5" cy="37.5" r="1.5" fill="#E1EEFE"/>
<circle cx="37.5" cy="37.5" r="1.5" fill="#E1EEFE"/>
<circle cx="46.5" cy="37.5" r="1.5" fill="#E1EEFE"/>
<circle cx="55.5" cy="37.5" r="1.5" fill="#E1EEFE"/>
<circle cx="64.5" cy="37.5" r="1.5" fill="#E1EEFE"/>
<circle cx="73.5" cy="37.5" r="1.5" fill="#E1EEFE"/>
<circle cx="82.5" cy="37.5" r="1.5" fill="#E1EEFE"/>
<circle cx="91.5" cy="37.5" r="1.5" fill="#E1EEFE"/>
<circle cx="100.5" cy="37.5" r="1.5" fill="#E1EEFE"/>
<circle cx="109.5" cy="37.5" r="1.5" fill="#E1EEFE"/>
<circle cx="118.5" cy="37.5" r="1.5" fill="#E1EEFE"/>
<circle cx="127.5" cy="37.5" r="1.5" fill="#E1EEFE"/>
<circle cx="136.5" cy="37.5" r="1.5" fill="#E1EEFE"/>
<circle cx="145.5" cy="37.5" r="1.5" fill="#E1EEFE"/>
<circle cx="154.5" cy="37.5" r="1.5" fill="#E1EEFE"/>
<circle cx="163.5" cy="37.5" r="1.5" fill="#E1EEFE"/>
<circle cx="172.5" cy="37.5" r="1.5" fill="#E1EEFE"/>
<circle cx="181.5" cy="37.5" r="1.5" fill="#E1EEFE"/>
<circle cx="190.5" cy="37.5" r="1.5" fill="#E1EEFE"/>
<circle cx="199.5" cy="37.5" r="1.5" fill="#E1EEFE"/>
<circle cx="208.5" cy="37.5" r="1.5" fill="#E1EEFE"/>
<circle cx="217.5" cy="37.5" r="1.5" fill="#E1EEFE"/>
<circle cx="226.5" cy="37.5" r="1.5" fill="#E1EEFE"/>
<circle cx="235.5" cy="37.5" r="1.5" fill="#E1EEFE"/>
<circle cx="244.5" cy="37.5" r="1.5" fill="#E1EEFE"/>
<circle cx="1.5" cy="46.5" r="1.5" fill="#E1EEFE"/>
<circle cx="10.5" cy="46.5" r="1.5" fill="#E1EEFE"/>
<circle cx="19.5" cy="46.5" r="1.5" fill="#E1EEFE"/>
<circle cx="28.5" cy="46.5" r="1.5" fill="#E1EEFE"/>
<circle cx="37.5" cy="46.5" r="1.5" fill="#E1EEFE"/>
<circle cx="46.5" cy="46.5" r="1.5" fill="#E1EEFE"/>
<circle cx="55.5" cy="46.5" r="1.5" fill="#E1EEFE"/>
<circle cx="64.5" cy="46.5" r="1.5" fill="#E1EEFE"/>
<circle cx="73.5" cy="46.5" r="1.5" fill="#E1EEFE"/>
<circle cx="82.5" cy="46.5" r="1.5" fill="#E1EEFE"/>
<circle cx="91.5" cy="46.5" r="1.5" fill="#E1EEFE"/>
<circle cx="100.5" cy="46.5" r="1.5" fill="#E1EEFE"/>
<circle cx="109.5" cy="46.5" r="1.5" fill="#E1EEFE"/>
<circle cx="118.5" cy="46.5" r="1.5" fill="#E1EEFE"/>
<circle cx="127.5" cy="46.5" r="1.5" fill="#E1EEFE"/>
<circle cx="136.5" cy="46.5" r="1.5" fill="#E1EEFE"/>
<circle cx="145.5" cy="46.5" r="1.5" fill="#E1EEFE"/>
<circle cx="154.5" cy="46.5" r="1.5" fill="#E1EEFE"/>
<circle cx="163.5" cy="46.5" r="1.5" fill="#E1EEFE"/>
<circle cx="172.5" cy="46.5" r="1.5" fill="#E1EEFE"/>
<circle cx="181.5" cy="46.5" r="1.5" fill="#E1EEFE"/>
<circle cx="190.5" cy="46.5" r="1.5" fill="#E1EEFE"/>
<circle cx="199.5" cy="46.5" r="1.5" fill="#E1EEFE"/>
<circle cx="208.5" cy="46.5" r="1.5" fill="#E1EEFE"/>
<circle cx="217.5" cy="46.5" r="1.5" fill="#E1EEFE"/>
<circle cx="226.5" cy="46.5" r="1.5" fill="#E1EEFE"/>
<circle cx="235.5" cy="46.5" r="1.5" fill="#E1EEFE"/>
<circle cx="244.5" cy="46.5" r="1.5" fill="#E1EEFE"/>
<circle cx="1.5" cy="55.5" r="1.5" fill="#E1EEFE"/>
<circle cx="10.5" cy="55.5" r="1.5" fill="#E1EEFE"/>
<circle cx="19.5" cy="55.5" r="1.5" fill="#E1EEFE"/>
<circle cx="28.5" cy="55.5" r="1.5" fill="#E1EEFE"/>
<circle cx="37.5" cy="55.5" r="1.5" fill="#E1EEFE"/>
<circle cx="46.5" cy="55.5" r="1.5" fill="#E1EEFE"/>
<circle cx="55.5" cy="55.5" r="1.5" fill="#E1EEFE"/>
<circle cx="64.5" cy="55.5" r="1.5" fill="#E1EEFE"/>
<circle cx="73.5" cy="55.5" r="1.5" fill="#E1EEFE"/>
<circle cx="82.5" cy="55.5" r="1.5" fill="#E1EEFE"/>
<circle cx="91.5" cy="55.5" r="1.5" fill="#E1EEFE"/>
<circle cx="100.5" cy="55.5" r="1.5" fill="#E1EEFE"/>
<circle cx="109.5" cy="55.5" r="1.5" fill="#E1EEFE"/>
<circle cx="118.5" cy="55.5" r="1.5" fill="#E1EEFE"/>
<circle cx="127.5" cy="55.5" r="1.5" fill="#E1EEFE"/>
<circle cx="136.5" cy="55.5" r="1.5" fill="#E1EEFE"/>
<circle cx="145.5" cy="55.5" r="1.5" fill="#E1EEFE"/>
<circle cx="154.5" cy="55.5" r="1.5" fill="#E1EEFE"/>
<circle cx="163.5" cy="55.5" r="1.5" fill="#E1EEFE"/>
<circle cx="172.5" cy="55.5" r="1.5" fill="#E1EEFE"/>
<circle cx="181.5" cy="55.5" r="1.5" fill="#E1EEFE"/>
<circle cx="190.5" cy="55.5" r="1.5" fill="#E1EEFE"/>
<circle cx="199.5" cy="55.5" r="1.5" fill="#E1EEFE"/>
<circle cx="208.5" cy="55.5" r="1.5" fill="#E1EEFE"/>
<circle cx="217.5" cy="55.5" r="1.5" fill="#E1EEFE"/>
<circle cx="226.5" cy="55.5" r="1.5" fill="#E1EEFE"/>
<circle cx="235.5" cy="55.5" r="1.5" fill="#E1EEFE"/>
<circle cx="244.5" cy="55.5" r="1.5" fill="#E1EEFE"/>
<circle cx="1.5" cy="64.5" r="1.5" fill="#E1EEFE"/>
<circle cx="10.5" cy="64.5" r="1.5" fill="#E1EEFE"/>
<circle cx="19.5" cy="64.5" r="1.5" fill="#E1EEFE"/>
<circle cx="28.5" cy="64.5" r="1.5" fill="#E1EEFE"/>
<circle cx="37.5" cy="64.5" r="1.5" fill="#E1EEFE"/>
<circle cx="46.5" cy="64.5" r="1.5" fill="#E1EEFE"/>
<circle cx="55.5" cy="64.5" r="1.5" fill="#E1EEFE"/>
<circle cx="64.5" cy="64.5" r="1.5" fill="#E1EEFE"/>
<circle cx="73.5" cy="64.5" r="1.5" fill="#E1EEFE"/>
<circle cx="82.5" cy="64.5" r="1.5" fill="#E1EEFE"/>
<circle cx="91.5" cy="64.5" r="1.5" fill="#E1EEFE"/>
<circle cx="100.5" cy="64.5" r="1.5" fill="#E1EEFE"/>
<circle cx="109.5" cy="64.5" r="1.5" fill="#E1EEFE"/>
<circle cx="118.5" cy="64.5" r="1.5" fill="#E1EEFE"/>
<circle cx="127.5" cy="64.5" r="1.5" fill="#E1EEFE"/>
<circle cx="136.5" cy="64.5" r="1.5" fill="#E1EEFE"/>
<circle cx="145.5" cy="64.5" r="1.5" fill="#E1EEFE"/>
<circle cx="154.5" cy="64.5" r="1.5" fill="#E1EEFE"/>
<circle cx="163.5" cy="64.5" r="1.5" fill="#E1EEFE"/>
<circle cx="172.5" cy="64.5" r="1.5" fill="#E1EEFE"/>
<circle cx="181.5" cy="64.5" r="1.5" fill="#E1EEFE"/>
<circle cx="190.5" cy="64.5" r="1.5" fill="#E1EEFE"/>
<circle cx="199.5" cy="64.5" r="1.5" fill="#E1EEFE"/>
<circle cx="208.5" cy="64.5" r="1.5" fill="#E1EEFE"/>
<circle cx="217.5" cy="64.5" r="1.5" fill="#E1EEFE"/>
<circle cx="226.5" cy="64.5" r="1.5" fill="#E1EEFE"/>
<circle cx="235.5" cy="64.5" r="1.5" fill="#E1EEFE"/>
<circle cx="244.5" cy="64.5" r="1.5" fill="#E1EEFE"/>
<circle cx="1.5" cy="73.5" r="1.5" fill="#E1EEFE"/>
<circle cx="10.5" cy="73.5" r="1.5" fill="#E1EEFE"/>
<circle cx="19.5" cy="73.5" r="1.5" fill="#E1EEFE"/>
<circle cx="28.5" cy="73.5" r="1.5" fill="#E1EEFE"/>
<circle cx="37.5" cy="73.5" r="1.5" fill="#E1EEFE"/>
<circle cx="46.5" cy="73.5" r="1.5" fill="#E1EEFE"/>
<circle cx="55.5" cy="73.5" r="1.5" fill="#E1EEFE"/>
<circle cx="64.5" cy="73.5" r="1.5" fill="#E1EEFE"/>
<circle cx="73.5" cy="73.5" r="1.5" fill="#E1EEFE"/>
<circle cx="82.5" cy="73.5" r="1.5" fill="#E1EEFE"/>
<circle cx="91.5" cy="73.5" r="1.5" fill="#E1EEFE"/>
<circle cx="100.5" cy="73.5" r="1.5" fill="#E1EEFE"/>
<circle cx="109.5" cy="73.5" r="1.5" fill="#E1EEFE"/>
<circle cx="118.5" cy="73.5" r="1.5" fill="#E1EEFE"/>
<circle cx="127.5" cy="73.5" r="1.5" fill="#E1EEFE"/>
<circle cx="136.5" cy="73.5" r="1.5" fill="#E1EEFE"/>
<circle cx="145.5" cy="73.5" r="1.5" fill="#E1EEFE"/>
<circle cx="154.5" cy="73.5" r="1.5" fill="#E1EEFE"/>
<circle cx="163.5" cy="73.5" r="1.5" fill="#E1EEFE"/>
<circle cx="172.5" cy="73.5" r="1.5" fill="#E1EEFE"/>
<circle cx="181.5" cy="73.5" r="1.5" fill="#E1EEFE"/>
<circle cx="190.5" cy="73.5" r="1.5" fill="#E1EEFE"/>
<circle cx="199.5" cy="73.5" r="1.5" fill="#E1EEFE"/>
<circle cx="208.5" cy="73.5" r="1.5" fill="#E1EEFE"/>
<circle cx="217.5" cy="73.5" r="1.5" fill="#E1EEFE"/>
<circle cx="226.5" cy="73.5" r="1.5" fill="#E1EEFE"/>
<circle cx="235.5" cy="73.5" r="1.5" fill="#E1EEFE"/>
<circle cx="244.5" cy="73.5" r="1.5" fill="#E1EEFE"/>
<circle cx="1.5" cy="82.5" r="1.5" fill="#E1EEFE"/>
<circle cx="10.5" cy="82.5" r="1.5" fill="#E1EEFE"/>
<circle cx="19.5" cy="82.5" r="1.5" fill="#E1EEFE"/>
<circle cx="28.5" cy="82.5" r="1.5" fill="#E1EEFE"/>
<circle cx="37.5" cy="82.5" r="1.5" fill="#E1EEFE"/>
<circle cx="46.5" cy="82.5" r="1.5" fill="#E1EEFE"/>
<circle cx="55.5" cy="82.5" r="1.5" fill="#E1EEFE"/>
<circle cx="64.5" cy="82.5" r="1.5" fill="#E1EEFE"/>
<circle cx="73.5" cy="82.5" r="1.5" fill="#E1EEFE"/>
<circle cx="82.5" cy="82.5" r="1.5" fill="#E1EEFE"/>
<circle cx="91.5" cy="82.5" r="1.5" fill="#E1EEFE"/>
<circle cx="100.5" cy="82.5" r="1.5" fill="#E1EEFE"/>
<circle cx="109.5" cy="82.5" r="1.5" fill="#E1EEFE"/>
<circle cx="118.5" cy="82.5" r="1.5" fill="#E1EEFE"/>
<circle cx="127.5" cy="82.5" r="1.5" fill="#E1EEFE"/>
<circle cx="136.5" cy="82.5" r="1.5" fill="#E1EEFE"/>
<circle cx="145.5" cy="82.5" r="1.5" fill="#E1EEFE"/>
<circle cx="154.5" cy="82.5" r="1.5" fill="#E1EEFE"/>
<circle cx="163.5" cy="82.5" r="1.5" fill="#E1EEFE"/>
<circle cx="172.5" cy="82.5" r="1.5" fill="#E1EEFE"/>
<circle cx="181.5" cy="82.5" r="1.5" fill="#E1EEFE"/>
<circle cx="190.5" cy="82.5" r="1.5" fill="#E1EEFE"/>
<circle cx="199.5" cy="82.5" r="1.5" fill="#E1EEFE"/>
<circle cx="208.5" cy="82.5" r="1.5" fill="#E1EEFE"/>
<circle cx="217.5" cy="82.5" r="1.5" fill="#E1EEFE"/>
<circle cx="226.5" cy="82.5" r="1.5" fill="#E1EEFE"/>
<circle cx="235.5" cy="82.5" r="1.5" fill="#E1EEFE"/>
<circle cx="244.5" cy="82.5" r="1.5" fill="#E1EEFE"/>
<circle cx="1.5" cy="91.5" r="1.5" fill="#E1EEFE"/>
<circle cx="10.5" cy="91.5" r="1.5" fill="#E1EEFE"/>
<circle cx="19.5" cy="91.5" r="1.5" fill="#E1EEFE"/>
<circle cx="28.5" cy="91.5" r="1.5" fill="#E1EEFE"/>
<circle cx="37.5" cy="91.5" r="1.5" fill="#E1EEFE"/>
<circle cx="46.5" cy="91.5" r="1.5" fill="#E1EEFE"/>
<circle cx="55.5" cy="91.5" r="1.5" fill="#E1EEFE"/>
<circle cx="64.5" cy="91.5" r="1.5" fill="#E1EEFE"/>
<circle cx="73.5" cy="91.5" r="1.5" fill="#E1EEFE"/>
<circle cx="82.5" cy="91.5" r="1.5" fill="#E1EEFE"/>
<circle cx="91.5" cy="91.5" r="1.5" fill="#E1EEFE"/>
<circle cx="100.5" cy="91.5" r="1.5" fill="#E1EEFE"/>
<circle cx="109.5" cy="91.5" r="1.5" fill="#E1EEFE"/>
<circle cx="118.5" cy="91.5" r="1.5" fill="#E1EEFE"/>
<circle cx="127.5" cy="91.5" r="1.5" fill="#E1EEFE"/>
<circle cx="136.5" cy="91.5" r="1.5" fill="#E1EEFE"/>
<circle cx="145.5" cy="91.5" r="1.5" fill="#E1EEFE"/>
<circle cx="154.5" cy="91.5" r="1.5" fill="#E1EEFE"/>
<circle cx="163.5" cy="91.5" r="1.5" fill="#E1EEFE"/>
<circle cx="172.5" cy="91.5" r="1.5" fill="#E1EEFE"/>
<circle cx="181.5" cy="91.5" r="1.5" fill="#E1EEFE"/>
<circle cx="190.5" cy="91.5" r="1.5" fill="#E1EEFE"/>
<circle cx="199.5" cy="91.5" r="1.5" fill="#E1EEFE"/>
<circle cx="208.5" cy="91.5" r="1.5" fill="#E1EEFE"/>
<circle cx="217.5" cy="91.5" r="1.5" fill="#E1EEFE"/>
<circle cx="226.5" cy="91.5" r="1.5" fill="#E1EEFE"/>
<circle cx="235.5" cy="91.5" r="1.5" fill="#E1EEFE"/>
<circle cx="244.5" cy="91.5" r="1.5" fill="#E1EEFE"/>
<circle cx="1.5" cy="100.5" r="1.5" fill="#E1EEFE"/>
<circle cx="10.5" cy="100.5" r="1.5" fill="#E1EEFE"/>
<circle cx="19.5" cy="100.5" r="1.5" fill="#E1EEFE"/>
<circle cx="28.5" cy="100.5" r="1.5" fill="#E1EEFE"/>
<circle cx="37.5" cy="100.5" r="1.5" fill="#E1EEFE"/>
<circle cx="46.5" cy="100.5" r="1.5" fill="#E1EEFE"/>
<circle cx="55.5" cy="100.5" r="1.5" fill="#E1EEFE"/>
<circle cx="64.5" cy="100.5" r="1.5" fill="#E1EEFE"/>
<circle cx="73.5" cy="100.5" r="1.5" fill="#E1EEFE"/>
<circle cx="82.5" cy="100.5" r="1.5" fill="#E1EEFE"/>
<circle cx="91.5" cy="100.5" r="1.5" fill="#E1EEFE"/>
<circle cx="100.5" cy="100.5" r="1.5" fill="#E1EEFE"/>
<circle cx="109.5" cy="100.5" r="1.5" fill="#E1EEFE"/>
<circle cx="118.5" cy="100.5" r="1.5" fill="#E1EEFE"/>
<circle cx="127.5" cy="100.5" r="1.5" fill="#E1EEFE"/>
<circle cx="136.5" cy="100.5" r="1.5" fill="#E1EEFE"/>
<circle cx="145.5" cy="100.5" r="1.5" fill="#E1EEFE"/>
<circle cx="154.5" cy="100.5" r="1.5" fill="#E1EEFE"/>
<circle cx="163.5" cy="100.5" r="1.5" fill="#E1EEFE"/>
<circle cx="172.5" cy="100.5" r="1.5" fill="#E1EEFE"/>
<circle cx="181.5" cy="100.5" r="1.5" fill="#E1EEFE"/>
<circle cx="190.5" cy="100.5" r="1.5" fill="#E1EEFE"/>
<circle cx="199.5" cy="100.5" r="1.5" fill="#E1EEFE"/>
<circle cx="208.5" cy="100.5" r="1.5" fill="#E1EEFE"/>
<circle cx="217.5" cy="100.5" r="1.5" fill="#E1EEFE"/>
<circle cx="226.5" cy="100.5" r="1.5" fill="#E1EEFE"/>
<circle cx="235.5" cy="100.5" r="1.5" fill="#E1EEFE"/>
<circle cx="244.5" cy="100.5" r="1.5" fill="#E1EEFE"/>
<circle cx="1.5" cy="109.5" r="1.5" fill="#E1EEFE"/>
<circle cx="10.5" cy="109.5" r="1.5" fill="#E1EEFE"/>
<circle cx="19.5" cy="109.5" r="1.5" fill="#E1EEFE"/>
<circle cx="28.5" cy="109.5" r="1.5" fill="#E1EEFE"/>
<circle cx="37.5" cy="109.5" r="1.5" fill="#E1EEFE"/>
<circle cx="46.5" cy="109.5" r="1.5" fill="#E1EEFE"/>
<circle cx="55.5" cy="109.5" r="1.5" fill="#E1EEFE"/>
<circle cx="64.5" cy="109.5" r="1.5" fill="#E1EEFE"/>
<circle cx="73.5" cy="109.5" r="1.5" fill="#E1EEFE"/>
<circle cx="82.5" cy="109.5" r="1.5" fill="#E1EEFE"/>
<circle cx="91.5" cy="109.5" r="1.5" fill="#E1EEFE"/>
<circle cx="100.5" cy="109.5" r="1.5" fill="#E1EEFE"/>
<circle cx="109.5" cy="109.5" r="1.5" fill="#E1EEFE"/>
<circle cx="118.5" cy="109.5" r="1.5" fill="#E1EEFE"/>
<circle cx="127.5" cy="109.5" r="1.5" fill="#E1EEFE"/>
<circle cx="136.5" cy="109.5" r="1.5" fill="#E1EEFE"/>
<circle cx="145.5" cy="109.5" r="1.5" fill="#E1EEFE"/>
<circle cx="154.5" cy="109.5" r="1.5" fill="#E1EEFE"/>
<circle cx="163.5" cy="109.5" r="1.5" fill="#E1EEFE"/>
<circle cx="172.5" cy="109.5" r="1.5" fill="#E1EEFE"/>
<circle cx="181.5" cy="109.5" r="1.5" fill="#E1EEFE"/>
<circle cx="190.5" cy="109.5" r="1.5" fill="#E1EEFE"/>
<circle cx="199.5" cy="109.5" r="1.5" fill="#E1EEFE"/>
<circle cx="208.5" cy="109.5" r="1.5" fill="#E1EEFE"/>
<circle cx="217.5" cy="109.5" r="1.5" fill="#E1EEFE"/>
<circle cx="226.5" cy="109.5" r="1.5" fill="#E1EEFE"/>
<circle cx="235.5" cy="109.5" r="1.5" fill="#E1EEFE"/>
<circle cx="244.5" cy="109.5" r="1.5" fill="#E1EEFE"/>
<circle cx="1.5" cy="118.5" r="1.5" fill="#E1EEFE"/>
<circle cx="10.5" cy="118.5" r="1.5" fill="#E1EEFE"/>
<circle cx="19.5" cy="118.5" r="1.5" fill="#E1EEFE"/>
<circle cx="28.5" cy="118.5" r="1.5" fill="#E1EEFE"/>
<circle cx="37.5" cy="118.5" r="1.5" fill="#E1EEFE"/>
<circle cx="46.5" cy="118.5" r="1.5" fill="#E1EEFE"/>
<circle cx="55.5" cy="118.5" r="1.5" fill="#E1EEFE"/>
<circle cx="64.5" cy="118.5" r="1.5" fill="#E1EEFE"/>
<circle cx="73.5" cy="118.5" r="1.5" fill="#E1EEFE"/>
<circle cx="82.5" cy="118.5" r="1.5" fill="#E1EEFE"/>
<circle cx="91.5" cy="118.5" r="1.5" fill="#E1EEFE"/>
<circle cx="100.5" cy="118.5" r="1.5" fill="#E1EEFE"/>
<circle cx="109.5" cy="118.5" r="1.5" fill="#E1EEFE"/>
<circle cx="118.5" cy="118.5" r="1.5" fill="#E1EEFE"/>
<circle cx="127.5" cy="118.5" r="1.5" fill="#E1EEFE"/>
<circle cx="136.5" cy="118.5" r="1.5" fill="#E1EEFE"/>
<circle cx="145.5" cy="118.5" r="1.5" fill="#E1EEFE"/>
<circle cx="154.5" cy="118.5" r="1.5" fill="#E1EEFE"/>
<circle cx="163.5" cy="118.5" r="1.5" fill="#E1EEFE"/>
<circle cx="172.5" cy="118.5" r="1.5" fill="#E1EEFE"/>
<circle cx="181.5" cy="118.5" r="1.5" fill="#E1EEFE"/>
<circle cx="190.5" cy="118.5" r="1.5" fill="#E1EEFE"/>
<circle cx="199.5" cy="118.5" r="1.5" fill="#E1EEFE"/>
<circle cx="208.5" cy="118.5" r="1.5" fill="#E1EEFE"/>
<circle cx="217.5" cy="118.5" r="1.5" fill="#E1EEFE"/>
<circle cx="226.5" cy="118.5" r="1.5" fill="#E1EEFE"/>
<circle cx="235.5" cy="118.5" r="1.5" fill="#E1EEFE"/>
<circle cx="244.5" cy="118.5" r="1.5" fill="#E1EEFE"/>
<circle cx="1.5" cy="127.5" r="1.5" fill="#E1EEFE"/>
<circle cx="10.5" cy="127.5" r="1.5" fill="#E1EEFE"/>
<circle cx="19.5" cy="127.5" r="1.5" fill="#E1EEFE"/>
<circle cx="28.5" cy="127.5" r="1.5" fill="#E1EEFE"/>
<circle cx="37.5" cy="127.5" r="1.5" fill="#E1EEFE"/>
<circle cx="46.5" cy="127.5" r="1.5" fill="#E1EEFE"/>
<circle cx="55.5" cy="127.5" r="1.5" fill="#E1EEFE"/>
<circle cx="64.5" cy="127.5" r="1.5" fill="#E1EEFE"/>
<circle cx="73.5" cy="127.5" r="1.5" fill="#E1EEFE"/>
<circle cx="82.5" cy="127.5" r="1.5" fill="#E1EEFE"/>
<circle cx="91.5" cy="127.5" r="1.5" fill="#E1EEFE"/>
<circle cx="100.5" cy="127.5" r="1.5" fill="#E1EEFE"/>
<circle cx="109.5" cy="127.5" r="1.5" fill="#E1EEFE"/>
<circle cx="118.5" cy="127.5" r="1.5" fill="#E1EEFE"/>
<circle cx="127.5" cy="127.5" r="1.5" fill="#E1EEFE"/>
<circle cx="136.5" cy="127.5" r="1.5" fill="#E1EEFE"/>
<circle cx="145.5" cy="127.5" r="1.5" fill="#E1EEFE"/>
<circle cx="154.5" cy="127.5" r="1.5" fill="#E1EEFE"/>
<circle cx="163.5" cy="127.5" r="1.5" fill="#E1EEFE"/>
<circle cx="172.5" cy="127.5" r="1.5" fill="#E1EEFE"/>
<circle cx="181.5" cy="127.5" r="1.5" fill="#E1EEFE"/>
<circle cx="190.5" cy="127.5" r="1.5" fill="#E1EEFE"/>
<circle cx="199.5" cy="127.5" r="1.5" fill="#E1EEFE"/>
<circle cx="208.5" cy="127.5" r="1.5" fill="#E1EEFE"/>
<circle cx="217.5" cy="127.5" r="1.5" fill="#E1EEFE"/>
<circle cx="226.5" cy="127.5" r="1.5" fill="#E1EEFE"/>
<circle cx="235.5" cy="127.5" r="1.5" fill="#E1EEFE"/>
<circle cx="244.5" cy="127.5" r="1.5" fill="#E1EEFE"/>
<circle cx="1.5" cy="136.5" r="1.5" fill="#E1EEFE"/>
<circle cx="10.5" cy="136.5" r="1.5" fill="#E1EEFE"/>
<circle cx="19.5" cy="136.5" r="1.5" fill="#E1EEFE"/>
<circle cx="28.5" cy="136.5" r="1.5" fill="#E1EEFE"/>
<circle cx="37.5" cy="136.5" r="1.5" fill="#E1EEFE"/>
<circle cx="46.5" cy="136.5" r="1.5" fill="#E1EEFE"/>
<circle cx="55.5" cy="136.5" r="1.5" fill="#E1EEFE"/>
<circle cx="64.5" cy="136.5" r="1.5" fill="#E1EEFE"/>
<circle cx="73.5" cy="136.5" r="1.5" fill="#E1EEFE"/>
<circle cx="82.5" cy="136.5" r="1.5" fill="#E1EEFE"/>
<circle cx="91.5" cy="136.5" r="1.5" fill="#E1EEFE"/>
<circle cx="100.5" cy="136.5" r="1.5" fill="#E1EEFE"/>
<circle cx="109.5" cy="136.5" r="1.5" fill="#E1EEFE"/>
<circle cx="118.5" cy="136.5" r="1.5" fill="#E1EEFE"/>
<circle cx="127.5" cy="136.5" r="1.5" fill="#E1EEFE"/>
<circle cx="136.5" cy="136.5" r="1.5" fill="#E1EEFE"/>
<circle cx="145.5" cy="136.5" r="1.5" fill="#E1EEFE"/>
<circle cx="154.5" cy="136.5" r="1.5" fill="#E1EEFE"/>
<circle cx="163.5" cy="136.5" r="1.5" fill="#E1EEFE"/>
<circle cx="172.5" cy="136.5" r="1.5" fill="#E1EEFE"/>
<circle cx="181.5" cy="136.5" r="1.5" fill="#E1EEFE"/>
<circle cx="190.5" cy="136.5" r="1.5" fill="#E1EEFE"/>
<circle cx="199.5" cy="136.5" r="1.5" fill="#E1EEFE"/>
<circle cx="208.5" cy="136.5" r="1.5" fill="#E1EEFE"/>
<circle cx="217.5" cy="136.5" r="1.5" fill="#E1EEFE"/>
<circle cx="226.5" cy="136.5" r="1.5" fill="#E1EEFE"/>
<circle cx="235.5" cy="136.5" r="1.5" fill="#E1EEFE"/>
<circle cx="244.5" cy="136.5" r="1.5" fill="#E1EEFE"/>
<circle cx="1.5" cy="145.5" r="1.5" fill="#E1EEFE"/>
<circle cx="10.5" cy="145.5" r="1.5" fill="#E1EEFE"/>
<circle cx="19.5" cy="145.5" r="1.5" fill="#E1EEFE"/>
<circle cx="28.5" cy="145.5" r="1.5" fill="#E1EEFE"/>
<circle cx="37.5" cy="145.5" r="1.5" fill="#E1EEFE"/>
<circle cx="46.5" cy="145.5" r="1.5" fill="#E1EEFE"/>
<circle cx="55.5" cy="145.5" r="1.5" fill="#E1EEFE"/>
<circle cx="64.5" cy="145.5" r="1.5" fill="#E1EEFE"/>
<circle cx="73.5" cy="145.5" r="1.5" fill="#E1EEFE"/>
<circle cx="82.5" cy="145.5" r="1.5" fill="#E1EEFE"/>
<circle cx="91.5" cy="145.5" r="1.5" fill="#E1EEFE"/>
<circle cx="100.5" cy="145.5" r="1.5" fill="#E1EEFE"/>
<circle cx="109.5" cy="145.5" r="1.5" fill="#E1EEFE"/>
<circle cx="118.5" cy="145.5" r="1.5" fill="#E1EEFE"/>
<circle cx="127.5" cy="145.5" r="1.5" fill="#E1EEFE"/>
<circle cx="136.5" cy="145.5" r="1.5" fill="#E1EEFE"/>
<circle cx="145.5" cy="145.5" r="1.5" fill="#E1EEFE"/>
<circle cx="154.5" cy="145.5" r="1.5" fill="#E1EEFE"/>
<circle cx="163.5" cy="145.5" r="1.5" fill="#E1EEFE"/>
<circle cx="172.5" cy="145.5" r="1.5" fill="#E1EEFE"/>
<circle cx="181.5" cy="145.5" r="1.5" fill="#E1EEFE"/>
<circle cx="190.5" cy="145.5" r="1.5" fill="#E1EEFE"/>
<circle cx="199.5" cy="145.5" r="1.5" fill="#E1EEFE"/>
<circle cx="208.5" cy="145.5" r="1.5" fill="#E1EEFE"/>
<circle cx="217.5" cy="145.5" r="1.5" fill="#E1EEFE"/>
<circle cx="226.5" cy="145.5" r="1.5" fill="#E1EEFE"/>
<circle cx="235.5" cy="145.5" r="1.5" fill="#E1EEFE"/>
<circle cx="244.5" cy="145.5" r="1.5" fill="#E1EEFE"/>
</g>
<defs>
<clipPath id="clip0_2_43">
<rect width="246" height="150" rx="13" fill="white"/>
</clipPath>
</defs>
</svg>
