<svg width="75" height="18" viewBox="0 0 75 18" fill="none" xmlns="http://www.w3.org/2000/svg">
<path d="M12.5156 5L8.32031 17H4.57031L0.375 5H3.89063L6.38281 13.5859H6.50781L8.99219 5H12.5156ZM13.1187 17V5H16.4469V17H13.1187ZM14.7906 3.45312C14.2958 3.45312 13.8714 3.28906 13.5172 2.96094C13.1682 2.6276 12.9937 2.22917 12.9937 1.76562C12.9937 1.30729 13.1682 0.914062 13.5172 0.585938C13.8714 0.252604 14.2958 0.0859367 14.7906 0.0859367C15.2854 0.0859367 15.7073 0.252604 16.0562 0.585938C16.4104 0.914062 16.5875 1.30729 16.5875 1.76562C16.5875 2.22917 16.4104 2.6276 16.0562 2.96094C15.7073 3.28906 15.2854 3.45312 14.7906 3.45312ZM29.2004 5L25.0051 17H21.2551L17.0598 5H20.5754L23.0676 13.5859H23.1926L25.677 5H29.2004ZM34.8855 17.2344C33.6512 17.2344 32.5887 16.9844 31.698 16.4844C30.8126 15.9792 30.1303 15.2656 29.6512 14.3437C29.172 13.4167 28.9324 12.3203 28.9324 11.0547C28.9324 9.82031 29.172 8.73698 29.6512 7.80469C30.1303 6.8724 30.8048 6.14583 31.6746 5.625C32.5496 5.10417 33.5757 4.84375 34.7527 4.84375C35.5444 4.84375 36.2814 4.97135 36.9637 5.22656C37.6512 5.47656 38.2501 5.85417 38.7605 6.35937C39.2762 6.86458 39.6772 7.5 39.9637 8.26562C40.2501 9.02604 40.3934 9.91667 40.3934 10.9375V11.8516H30.2605V9.78906H37.2605C37.2605 9.3099 37.1564 8.88542 36.948 8.51563C36.7397 8.14583 36.4507 7.85677 36.0809 7.64844C35.7163 7.4349 35.2918 7.32812 34.8074 7.32812C34.3022 7.32812 33.8543 7.44531 33.4637 7.67969C33.0783 7.90885 32.7762 8.21875 32.5574 8.60937C32.3387 8.99479 32.2267 9.42448 32.2215 9.89844V11.8594C32.2215 12.4531 32.3309 12.9661 32.5496 13.3984C32.7736 13.8307 33.0887 14.1641 33.4949 14.3984C33.9012 14.6328 34.3829 14.75 34.9402 14.75C35.31 14.75 35.6486 14.6979 35.9559 14.5938C36.2632 14.4896 36.5262 14.3333 36.7449 14.125C36.9637 13.9167 37.1303 13.6615 37.2449 13.3594L40.323 13.5625C40.1668 14.3021 39.8465 14.9479 39.3621 15.5C38.8829 16.0469 38.2632 16.474 37.5027 16.7813C36.7475 17.0833 35.8751 17.2344 34.8855 17.2344ZM52.3305 5L48.1352 17H44.3852L40.1898 5H43.7055L46.1977 13.5859H46.3227L48.807 5H52.3305ZM52.9336 17V5H56.2617V17H52.9336ZM54.6055 3.45312C54.1107 3.45312 53.6862 3.28906 53.332 2.96094C52.9831 2.6276 52.8086 2.22917 52.8086 1.76562C52.8086 1.30729 52.9831 0.914062 53.332 0.585938C53.6862 0.252604 54.1107 0.0859367 54.6055 0.0859367C55.1003 0.0859367 55.5221 0.252604 55.8711 0.585938C56.2253 0.914062 56.4023 1.30729 56.4023 1.76562C56.4023 2.22917 56.2253 2.6276 55.8711 2.96094C55.5221 3.28906 55.1003 3.45312 54.6055 3.45312ZM63.2496 17.2344C62.0361 17.2344 60.9866 16.9766 60.1012 16.4609C59.221 15.9401 58.5413 15.2161 58.0621 14.2891C57.5829 13.3568 57.3434 12.276 57.3434 11.0469C57.3434 9.80729 57.5829 8.72396 58.0621 7.79687C58.5413 6.86458 59.221 6.14062 60.1012 5.625C60.9866 5.10417 62.0361 4.84375 63.2496 4.84375C64.4632 4.84375 65.51 5.10417 66.3902 5.625C67.2757 6.14062 67.9579 6.86458 68.4371 7.79687C68.9163 8.72396 69.1559 9.80729 69.1559 11.0469C69.1559 12.276 68.9163 13.3568 68.4371 14.2891C67.9579 15.2161 67.2757 15.9401 66.3902 16.4609C65.51 16.9766 64.4632 17.2344 63.2496 17.2344ZM63.2652 14.6562C63.8173 14.6562 64.2783 14.5 64.648 14.1875C65.0178 13.8698 65.2965 13.4375 65.484 12.8906C65.6767 12.3437 65.773 11.7214 65.773 11.0234C65.773 10.3255 65.6767 9.70313 65.484 9.15625C65.2965 8.60937 65.0178 8.17708 64.648 7.85937C64.2783 7.54167 63.8173 7.38281 63.2652 7.38281C62.7079 7.38281 62.2392 7.54167 61.859 7.85937C61.484 8.17708 61.2001 8.60937 61.0074 9.15625C60.8199 9.70313 60.7262 10.3255 60.7262 11.0234C60.7262 11.7214 60.8199 12.3437 61.0074 12.8906C61.2001 13.4375 61.484 13.8698 61.859 14.1875C62.2392 14.5 62.7079 14.6562 63.2652 14.6562ZM72.1652 17.2031C71.6496 17.2031 71.2069 17.0208 70.8371 16.6562C70.4725 16.2865 70.2902 15.8437 70.2902 15.3281C70.2902 14.8177 70.4725 14.3802 70.8371 14.0156C71.2069 13.651 71.6496 13.4687 72.1652 13.4687C72.6652 13.4687 73.1027 13.651 73.4777 14.0156C73.8527 14.3802 74.0402 14.8177 74.0402 15.3281C74.0402 15.6719 73.9517 15.987 73.7746 16.2734C73.6027 16.5547 73.3762 16.7812 73.0949 16.9531C72.8137 17.1198 72.5038 17.2031 72.1652 17.2031Z" fill="#0A1690"/>
</svg>
